<?xml version="1.0" encoding="utf-8"?>
<!-- Generator: Adobe Illustrator 22.1.0, SVG Export Plug-In . SVG Version: 6.00 Build 0)  -->
<svg version="1.1" baseProfile="basic" id="Layer_1"
	 xmlns="http://www.w3.org/2000/svg" xmlns:xlink="http://www.w3.org/1999/xlink" x="0px" y="0px" viewBox="0 0 2500 1793.1"
	 xml:space="preserve">
<g>
	
	<g>
		<path fill="#6CB33F" d="M848.8,1588.8l47.9-272.7h89.4l-48,272.7H848.8z M1084.1,1316.1h243.1l-11.1,63.8h-66.4l-36.9,208.9h-89.4
			l36.8-208.9h-87.4L1084.1,1316.1z M1575,1588.8l47.9-272.7h225.7l-11.2,63.6h-136.3l-6.8,39h112.4l-11.2,63.7H1683l-7.5,42.9
			h136.2l-11.3,63.5L1575,1588.8z M2293.2,1316.1h-236.7l-26.2,148.9l-71.1-148.9h-83.7l-48,272.7h85.6l26.2-148.4l67.9,148.4h83.7
			l36.8-208.9h141.4c47.6,0,63.6,15.1,53.5,71.9c-9,51.5-35.6,73.6-77.3,73.6h-24.6l16.6-92.3l-89.8,0.1l-27.3,155.7h123
			c87.4,0,151.6-39.4,169.7-142C2428.5,1357,2381.2,1316.1,2293.2,1316.1 M4.8,1588.8l145.8-272.7h90.8l49.7,272.7h-89l-4.7-39.3
			h-86.8l-18.3,39.3H4.8z M180.8,1398.3l-43.8,95.5h55.4L180.8,1398.3z M443.2,1588.8h-31.6c-87.8,0-135.1-40.8-119.3-130.6
			c18.1-102.7,82.1-142.1,169.7-142.1h131.2l-11.3,63.6l-130.5,0.2c-36.8,2.9-60.4,25.4-68.9,73.3c-9.8,55.5,6.1,72,50.4,72
			c18.3,0,43.5-12.5,51.5-31.4h-39.5l10.3-60.8h117.4l-10.4,59.3c-2.7,15-9.3,39.2-33,62.8C514.6,1569.7,485.9,1588.8,443.2,1588.8
			 M1582.3,1393.8c9.3-53-16.3-77.7-107.3-77.7h-128.7l-11,63.8h130.9c20.8,0,34.3,9,31,28.4c-3.3,18.9-19.5,24.8-47,24.8h-124.5
			l-27.3,155.8h89.2l16.8-95h27.2c37.3,0,44.5,9.4,41,36.8l-10.2,58.2h85.6l11.6-65.8c6.1-46-9.7-52.6-35-62.6
			C1557.9,1451.7,1576.6,1425.2,1582.3,1393.8 M856,1393.8c9.3-53-16.3-77.7-107.2-77.7H620l-11.1,63.8H740c20.6,0,34.3,9,30.9,28.4
			c-3.3,18.9-19.3,24.8-46.9,24.8H599.5l-27.4,155.8h89.3l16.8-95h27.2c37.2,0,44.4,9.4,41,36.8l-10.2,58.2h85.6l11.6-65.8
			c6-46-9.8-52.6-35.1-62.6C831.8,1451.7,850.4,1425.2,856,1393.8"/>
		<path fill="#6CB33F" d="M1098.1,1493.8l10.7-60.8h-101.5l-10.6,60.8H1098.1z M2035.4,6.1c-7.5,3.4-17.5,8.5-31.2,16.4
			c-63.6,36.6-182.2,104.4-270.7,122.6c-4.9,1-9.8,2-14.7,2.9c-71.1,14.1-231.8,45.8-371.4,157.2c-45.3,36.3-88.5,81-125.7,136.2
			c-20.5,30.7-38.5,63.3-53.8,98.2c-39.5,90.3-61,194.2-64.2,311.2c-2.7,91.2,5.7,190.4,25.1,297.2
			c15.7-87.3,116.3-536.2,564.6-796.2c0.9,2.3-4.2,7-8.4,10c-417.4,298.6-521.1,757.7-534,824.1c3-0.4,5.9-0.7,9-1
			c0.1-2,15.2-190.4,437-390.1c41.8-19.8,81.7-42.8,118.8-70.6C1893.2,591.4,1960.5,396,1997.2,240c8.4-35.7,15.2-69.2,21.2-99.5
			c12.8-63.6,14.7-118.1,31.4-131.4c3.2-2.4,9.4-5,10.5-9C2053.2,0.3,2046.7,1.3,2035.4,6.1 M2455.4,1598.5
			c-25.8,0-44.4-18.5-44.4-47.6c0-28,18.5-47.1,44.4-47.1c25,0,44.6,18.1,44.6,47.1C2500,1579.7,2481.3,1598.5,2455.4,1598.5
			 M2455.4,1508.6c-24.4,0-39.1,17.2-39.1,42.6c0,24.7,15.5,42.5,39.1,42.5c23.6,0,39.2-16.5,39.2-42.5
			C2494.6,1525.5,2478.2,1508.6,2455.4,1508.6 M2477.6,1579.5c-2.3,0.8-5,0.8-7.5,0.9l-4.8-9c-3.5-6.6-7.2-12.1-10.2-14.8h-9.6v23.5
			h-6.9v-56.5c6.2-0.8,11.4-1.1,16.1-1.1c10.1,0,18.5,4.2,18.5,16.3c0,7.8-4.8,13.5-11.8,15.5c3,2.6,6.8,7.1,9.8,13.1L2477.6,1579.5
			z M2454.2,1528.5c-2.4,0-6.3,0.3-8.9,0.5v21.7h8c7.8,0,12.3-3.8,12.3-11.4C2465.6,1531.7,2461.1,1528.5,2454.2,1528.5
			 M508.5,725.7c33,60.6,79.8,123.2,145.4,172.5c42.4,32,89.6,52.1,137.7,73.9c194,88.1,294,158.8,305.6,215.8
			c3.9-0.2,7.9-0.3,12-0.6c-24.1-54.5-167.9-313.3-383.7-429c-10.9-5.8-21.9-11.2-33.1-16.3c-4.9-2.3-9.4-5.8-10-8.5
			c205.4,60.9,350.1,260.6,412.6,367.6c-13.8-89.2-19.5-172.7-17.3-250.5c-22.1-66.6-56.7-129.7-110-173.8
			c-16.6-13.8-35-25.7-55.4-35.3c-115.4-54.6-226-67.2-314.7-77.1c-20.9-2.4-40-4.8-57-7.6c-54.9-8.9-89.3-21.9-103.3-51.4
			C435.3,515.3,449.8,617.4,508.5,725.7"/>
	</g>
</g>
</svg>
